<?xml version="1.0" encoding="UTF-8" standalone="no"?>
<!-- Created with Sodipodi ("http://www.sodipodi.com/") -->

<svg
   xmlns:dc="http://purl.org/dc/elements/1.1/"
   xmlns:cc="http://creativecommons.org/ns#"
   xmlns:rdf="http://www.w3.org/1999/02/22-rdf-syntax-ns#"
   xmlns:svg="http://www.w3.org/2000/svg"
   xmlns="http://www.w3.org/2000/svg"
   xmlns:sodipodi="http://sodipodi.sourceforge.net/DTD/sodipodi-0.dtd"
   xmlns:inkscape="http://www.inkscape.org/namespaces/inkscape"
   id="svg602"
   sodipodi:version="0.34"
   width="210mm"
   height="297mm"
   xml:space="preserve"
   sodipodi:docname="unixpeople_sodipodi.svg"
   version="1.1"
   inkscape:version="0.91 r13725"><metadata
     id="metadata56"><rdf:RDF><cc:Work
         rdf:about=""><dc:format>image/svg+xml</dc:format><dc:type
           rdf:resource="http://purl.org/dc/dcmitype/StillImage" /></cc:Work></rdf:RDF></metadata><defs
     id="defs604" /><sodipodi:namedview
     id="base"
     showgrid="false"
     inkscape:zoom="0.58393174"
     inkscape:cx="145.99342"
     inkscape:cy="517.26278"
     inkscape:window-width="1438"
     inkscape:window-height="879"
     inkscape:window-x="0"
     inkscape:window-y="19"
     inkscape:window-maximized="1"
     inkscape:current-layer="svg602" /><g
     id="g691"
     style="fill:#000000;fill-opacity:0.2748;"
     transform="translate(1951.058,-330.0615)"><path
       style="font-size:12;fill:#000000;fill-rule:evenodd;fill-opacity:0.2748;"
       d="M 221.4579 451.5268 L 221.4579 537.6791 L 307.6104 573.4911 L 307.6104 487.3386 L 221.4579 451.5268 z "
       id="path622"
       sodipodi:nodetypes="ccccc" /><path
       style="font-size:12;fill:#000000;fill-rule:evenodd;fill-opacity:0.2748;"
       d="M 221.4579 351.1072 L 221.4579 437.2595 L 307.6104 473.0714 L 307.6104 386.9189 L 221.4579 351.1072 z "
       id="path623"
       sodipodi:nodetypes="ccccc" /><path
       style="font-size:12;fill:#000000;fill-rule:evenodd;fill-opacity:0.2748;"
       d="M 221.4579 551.9463 L 221.4579 638.0987 L 307.6104 673.9106 L 307.6104 587.7581 L 221.4579 551.9463 z "
       id="path624"
       sodipodi:nodetypes="ccccc" /><path
       style="font-size:12;fill:#000000;fill-rule:evenodd;fill-opacity:0.2748;"
       d="M 221.4579 652.3659 L 221.4579 738.5183 L 307.6104 774.3302 L 307.6104 688.1777 L 221.4579 652.3659 z "
       id="path625"
       sodipodi:nodetypes="ccccc" /><path
       style="font-size:12;fill:#000000;fill-rule:evenodd;fill-opacity:0.2748;"
       d="M 700.7904 611.4875 L 700.7904 697.6398 L 614.6379 733.4517 L 614.6379 647.2992 L 700.7904 611.4875 z "
       id="path654"
       sodipodi:nodetypes="ccccc" /><path
       style="font-size:12;fill:#000000;fill-rule:evenodd;fill-opacity:0.2748;"
       d="M 700.7904 711.907 L 700.7904 798.0593 L 614.6379 833.8712 L 614.6379 747.7188 L 700.7904 711.907 z "
       id="path655"
       sodipodi:nodetypes="ccccc" /><path
       style="font-size:12;fill:#000000;fill-rule:evenodd;fill-opacity:0.2748;"
       d="M 602.2527 451.6027 L 602.2527 537.755 L 516.1002 573.5669 L 516.1002 487.4144 L 602.2527 451.6027 z "
       id="path656"
       sodipodi:nodetypes="ccccc" /><path
       style="font-size:12;fill:#000000;fill-rule:evenodd;fill-opacity:0.2748;"
       d="M 602.2527 652.4418 L 602.2527 738.5942 L 516.1002 774.4061 L 516.1002 688.2536 L 602.2527 652.4418 z "
       id="path659"
       sodipodi:nodetypes="ccccc" /><path
       style="font-size:12;fill:#000000;fill-rule:evenodd;fill-opacity:0.2748;"
       d="M 602.2527 752.8613 L 602.2527 839.0137 L 516.1002 874.8256 L 516.1002 788.6731 L 602.2527 752.8613 z "
       id="path660"
       sodipodi:nodetypes="ccccc" /><path
       style="font-size:12;fill:#000000;fill-rule:evenodd;fill-opacity:0.2748;"
       d="M 395.1243 335.6346 L 310.8736 370.4049 L 228.4947 336.2539 L 311.1628 300.3328 L 395.1243 335.6346 z "
       id="path685"
       sodipodi:nodetypes="ccccc" /><path
       style="font-size:12;fill:#000000;fill-rule:evenodd;fill-opacity:0.2748;"
       d="M 494.0634 294.2711 L 409.8126 329.0412 L 327.4337 294.8904 L 410.1018 258.9693 L 494.0634 294.2711 z "
       id="path686"
       sodipodi:nodetypes="ccccc" /><path
       style="font-size:12;fill:#000000;fill-rule:evenodd;fill-opacity:0.2748;"
       d="M 593.0024 252.9075 L 508.7516 287.6778 L 426.3727 253.5268 L 509.0409 217.6056 L 593.0024 252.9075 z "
       id="path687"
       sodipodi:nodetypes="ccccc" /><path
       style="font-size:12;fill:#000000;fill-rule:evenodd;fill-opacity:0.2748;"
       d="M 393.586 252.4045 L 309.3352 287.1748 L 226.9563 253.0237 L 309.6245 217.1027 L 393.586 252.4045 z "
       id="path689"
       sodipodi:nodetypes="ccccc" /><path
       style="font-size:12;fill:#000000;fill-rule:evenodd;fill-opacity:0.2748;"
       d="M 492.525 211.0409 L 408.2743 245.8112 L 325.8953 211.6602 L 408.5635 175.739 L 492.525 211.0409 z "
       id="path690"
       sodipodi:nodetypes="ccccc" /></g><g
     id="g4184"
     transform="translate(71.926215,-89.051504)"><g
       transform="matrix(0.849067,0,0,0.849067,-53.22985,-65.41003)"
       style="fill:#f8ad3a;fill-opacity:1"
       id="g711"><path
         sodipodi:nodetypes="ccccc"
         id="path612"
         d="m 122.9202,410.5725 0,86.1523 86.1525,35.8119 0,-86.1525 -86.1525,-35.8117 z"
         style="font-size:12px;fill:#f8ad3a;fill-opacity:1;fill-rule:evenodd"
         inkscape:connector-curvature="0" /><path
         sodipodi:nodetypes="ccccc"
         id="path613"
         d="m 122.9202,310.1528 0,86.1524 86.1525,35.8119 0,-86.1525 -86.1525,-35.8118 z"
         style="font-size:12px;fill:#f8ad3a;fill-opacity:1;fill-rule:evenodd"
         inkscape:connector-curvature="0" /><path
         sodipodi:nodetypes="ccccc"
         id="path614"
         d="m 122.9202,510.9921 0,86.1523 86.1525,35.8119 0,-86.1524 -86.1525,-35.8118 z"
         style="font-size:12px;fill:#f8ad3a;fill-opacity:1;fill-rule:evenodd"
         inkscape:connector-curvature="0" /><path
         sodipodi:nodetypes="ccccc"
         id="path615"
         d="m 122.9202,611.4116 0,86.1524 86.1525,35.8119 0,-86.1525 -86.1525,-35.8118 z"
         style="font-size:12px;fill:#f8ad3a;fill-opacity:1;fill-rule:evenodd"
         inkscape:connector-curvature="0" /><path
         sodipodi:nodetypes="ccccc"
         id="path616"
         d="m 122.9202,711.8311 0,86.1524 86.1525,35.8119 0,-86.1525 -86.1525,-35.8118 z"
         style="font-size:12px;fill:#f8ad3a;fill-opacity:1;fill-rule:evenodd"
         inkscape:connector-curvature="0" /><path
         sodipodi:nodetypes="ccccc"
         id="path626"
         d="m 221.4579,752.7855 0,86.1523 86.1525,35.8119 0,-86.1525 -86.1525,-35.8117 z"
         style="font-size:12px;fill:#f8ad3a;fill-opacity:1;fill-rule:evenodd"
         inkscape:connector-curvature="0" /><path
         sodipodi:nodetypes="ccccc"
         id="path632"
         d="m 319.483,492.461 0,86.1523 86.1525,35.8119 0,-86.1525 -86.1525,-35.8117 z"
         style="font-size:12px;fill:#f8ad3a;fill-opacity:1;fill-rule:evenodd"
         inkscape:connector-curvature="0" /><path
         sodipodi:nodetypes="ccccc"
         id="path633"
         d="m 319.483,392.0413 0,86.1524 86.1525,35.8119 0,-86.1525 -86.1525,-35.8118 z"
         style="font-size:12px;fill:#f8ad3a;fill-opacity:1;fill-rule:evenodd"
         inkscape:connector-curvature="0" /><path
         sodipodi:nodetypes="ccccc"
         id="path634"
         d="m 319.483,592.8805 0,86.1523 86.1525,35.8119 0,-86.1524 -86.1525,-35.8118 z"
         style="font-size:12px;fill:#f8ad3a;fill-opacity:1;fill-rule:evenodd"
         inkscape:connector-curvature="0" /><path
         sodipodi:nodetypes="ccccc"
         id="path635"
         d="m 319.483,693.3001 0,86.1524 86.1525,35.8119 0,-86.1525 -86.1525,-35.8118 z"
         style="font-size:12px;fill:#f8ad3a;fill-opacity:1;fill-rule:evenodd"
         inkscape:connector-curvature="0" /><path
         sodipodi:nodetypes="ccccc"
         id="path636"
         d="m 319.483,793.7196 0,86.1524 86.1525,35.8119 0,-86.1525 -86.1525,-35.8118 z"
         style="font-size:12px;fill:#f8ad3a;fill-opacity:1;fill-rule:evenodd"
         inkscape:connector-curvature="0" /></g><g
       transform="matrix(0.849067,0,0,0.849067,-53.22985,-65.41003)"
       style="fill:#f8ad3a;fill-opacity:1"
       id="g723"><path
         sodipodi:nodetypes="ccccc"
         id="path651"
         d="m 700.7904,410.6483 0,86.1524 -86.1525,35.8119 0,-86.1525 86.1525,-35.8118 z"
         style="font-size:12px;fill:#f8ad3a;fill-opacity:1;fill-rule:evenodd"
         inkscape:connector-curvature="0" /><path
         sodipodi:nodetypes="ccccc"
         id="path652"
         d="m 700.7903,310.2287 0,86.1523 -86.1525,35.8119 0,-86.1524 86.1525,-35.8118 z"
         style="font-size:12px;fill:#f8ad3a;fill-opacity:1;fill-rule:evenodd"
         inkscape:connector-curvature="0" /><path
         sodipodi:nodetypes="ccccc"
         id="path653"
         d="m 700.7904,511.0679 0,86.1524 -86.1525,35.8119 0,-86.1525 86.1525,-35.8118 z"
         style="font-size:12px;fill:#f8ad3a;fill-opacity:1;fill-rule:evenodd"
         inkscape:connector-curvature="0" /><path
         sodipodi:nodetypes="ccccc"
         id="path657"
         d="m 602.2527,351.183 0,86.1524 -86.1525,35.8119 0,-86.1525 86.1525,-35.8118 z"
         style="font-size:12px;fill:#f8ad3a;fill-opacity:1;fill-rule:evenodd"
         inkscape:connector-curvature="0" /><path
         sodipodi:nodetypes="ccccc"
         id="path658"
         d="m 602.2527,552.0222 0,86.1523 -86.1525,35.8119 0,-86.1524 86.1525,-35.8118 z"
         style="font-size:12px;fill:#f8ad3a;fill-opacity:1;fill-rule:evenodd"
         inkscape:connector-curvature="0" /><path
         sodipodi:nodetypes="ccccc"
         id="path661"
         d="m 504.2276,492.5368 0,86.1524 -86.1524,35.8119 0,-86.1525 86.1524,-35.8118 z"
         style="font-size:12px;fill:#f8ad3a;fill-opacity:1;fill-rule:evenodd"
         inkscape:connector-curvature="0" /><path
         sodipodi:nodetypes="ccccc"
         id="path662"
         d="m 504.2276,392.1172 0,86.1523 -86.1524,35.8119 0,-86.1524 86.1524,-35.8118 z"
         style="font-size:12px;fill:#f8ad3a;fill-opacity:1;fill-rule:evenodd"
         inkscape:connector-curvature="0" /><path
         sodipodi:nodetypes="ccccc"
         id="path663"
         d="m 504.2276,592.9563 0,86.1524 -86.1524,35.8119 0,-86.1525 86.1524,-35.8118 z"
         style="font-size:12px;fill:#f8ad3a;fill-opacity:1;fill-rule:evenodd"
         inkscape:connector-curvature="0" /><path
         sodipodi:nodetypes="ccccc"
         id="path664"
         d="m 504.2276,693.376 0,86.1523 -86.1524,35.8119 0,-86.1525 86.1524,-35.8117 z"
         style="font-size:12px;fill:#f8ad3a;fill-opacity:1;fill-rule:evenodd"
         inkscape:connector-curvature="0" /><path
         sodipodi:nodetypes="ccccc"
         id="path665"
         d="m 504.2276,793.7955 0,86.1523 -86.1524,35.8119 0,-86.1524 86.1524,-35.8118 z"
         style="font-size:12px;fill:#f8ad3a;fill-opacity:1;fill-rule:evenodd"
         inkscape:connector-curvature="0" /></g><path
       sodipodi:nodetypes="ccccc"
       id="path670"
       d="m 367.3016,259.2876 -71.5346,29.5223 -69.9451,-28.9965 70.1908,-30.4993 71.2889,29.9735 z"
       style="font-size:12px;fill:#dd4c1f;fill-rule:evenodd"
       inkscape:connector-curvature="0" /><path
       sodipodi:nodetypes="ccccc"
       id="path683"
       d="m 451.3074,224.1672 -71.5345,29.5223 -69.9452,-28.9965 70.1908,-30.4994 71.2889,29.9736 z"
       style="font-size:12px;fill:#dd4c1f;fill-rule:evenodd"
       inkscape:connector-curvature="0" /><path
       sodipodi:nodetypes="ccccc"
       id="path684"
       d="m 535.3132,189.0466 -71.5345,29.5223 -69.9451,-28.9964 70.1907,-30.4995 71.2889,29.9736 z"
       style="font-size:12px;fill:#dd4c1f;fill-rule:evenodd"
       inkscape:connector-curvature="0" /><path
       sodipodi:nodetypes="ccccc"
       id="path688"
       d="m 200.481,188.8559 -71.5346,29.5223 -69.94518,-28.9964 70.19078,-30.4994 71.289,29.9735 z"
       style="font-size:12px;fill:#dd4c1f;fill-rule:evenodd"
       inkscape:connector-curvature="0" /><path
       sodipodi:nodetypes="cccc"
       id="path758"
       d="m 207.8525,592.1071 -63.6747,-26.5225 63.6725,-26.9997 0.002,53.5222 z"
       style="font-size:12px;fill:#dd4c1f;fill-rule:evenodd"
       inkscape:connector-curvature="0" /><path
       sodipodi:nodetypes="cccc"
       id="path765"
       d="m 384.9517,359.5447 72.9609,31.6772 -72.8714,30.4995 -0.0895,-62.1767 z"
       style="font-size:12px;fill:#dd4c1f;fill-rule:evenodd"
       inkscape:connector-curvature="0" /><path
       sodipodi:nodetypes="cccc"
       id="path764"
       d="m 457.9423,377.4336 -69.9452,-28.9964 70.1907,-30.4995 -0.2455,59.4959 z"
       style="font-size:12px;fill:#f4792c;fill-rule:evenodd"
       inkscape:connector-curvature="0" /><path
       sodipodi:nodetypes="ccccc"
       id="path740"
       d="m 207.5758,283.219 0,73.1491 -73.1492,30.4067 0,-73.1492 73.1492,-30.4066 z"
       style="font-size:12px;fill:#f4792c;fill-rule:evenodd"
       inkscape:connector-curvature="0" /><path
       sodipodi:nodetypes="ccccc"
       id="path741"
       d="m 207.5758,197.9561 0,73.149 -73.1492,30.4067 0,-73.1491 73.1492,-30.4066 z"
       style="font-size:12px;fill:#f4792c;fill-rule:evenodd"
       inkscape:connector-curvature="0" /><path
       sodipodi:nodetypes="ccccc"
       id="path742"
       d="m 207.5758,368.4819 0,73.1491 -73.1492,30.4067 0,-73.1492 73.1492,-30.4066 z"
       style="font-size:12px;fill:#f4792c;fill-rule:evenodd"
       inkscape:connector-curvature="0" /><path
       sodipodi:nodetypes="ccccc"
       id="path743"
       d="m 207.5758,453.7449 0,73.149 -73.1492,30.4067 0,-73.1492 73.1492,-30.4065 z"
       style="font-size:12px;fill:#f4792c;fill-rule:evenodd"
       inkscape:connector-curvature="0" /></g></svg>